<?xml version="1.0" encoding="utf-8"?>
<!-- Generator: Adobe Illustrator 19.2.0, SVG Export Plug-In . SVG Version: 6.00 Build 0)  -->
<svg version="1.1" id="Layer_1" xmlns="http://www.w3.org/2000/svg" xmlns:xlink="http://www.w3.org/1999/xlink" x="0px" y="0px"
	 viewBox="0 0 24 19.5" style="enable-background:new 0 0 24 19.5;" xml:space="preserve">
<style type="text/css">
	.st0{fill:#BCC0BF;}
</style>
<g>
	<g>
		<path class="st0" d="M12.5,0C5.9,0,0,3.9,0,8.4c0,3,1.6,5.6,4.5,7v0.2c-0.1,1.9-1.3,2.5-1.3,2.5l-2.7,1.3h3c3.7,0,6.5-1.6,7.7-2.8
			h1.2c6.5,0,11.7-3.7,11.7-8.4C24,3.6,18.9,0,12.5,0L12.5,0z M12.3,15.1h-1.6l-0.3,0.3c-0.7,0.8-2.4,2.1-5,2.6
			c0.5-0.8,0.8-1.7,0.8-3v-0.4l-0.5-0.2c-2.7-1.3-4.2-3.4-4.2-6c0-3.6,5.3-6.9,10.9-6.9c5.6,0,10,3,10,6.9
			C22.5,12,17.8,15.1,12.3,15.1L12.3,15.1z M12.3,15.1"/>
		<path class="st0" d="M9,9c0,0.8-0.7,1.5-1.5,1.5C6.7,10.5,6,9.8,6,9c0-0.8,0.7-1.5,1.5-1.5C8.3,7.5,9,8.2,9,9L9,9z M9,9"/>
		<path class="st0" d="M13.5,9c0,0.8-0.7,1.5-1.5,1.5c-0.8,0-1.5-0.7-1.5-1.5c0-0.8,0.7-1.5,1.5-1.5C12.8,7.5,13.5,8.2,13.5,9
			L13.5,9z M13.5,9"/>
		<path class="st0" d="M18,9c0,0.8-0.7,1.5-1.5,1.5C15.7,10.5,15,9.8,15,9c0-0.8,0.7-1.5,1.5-1.5C17.3,7.5,18,8.2,18,9L18,9z M18,9"
			/>
	</g>
</g>
</svg>
